<mxfile host="app.diagrams.net" modified="2023-03-24T18:20:31.710Z" agent="Mozilla/5.0 (Windows NT 10.0; Win64; x64) AppleWebKit/537.36 (KHTML, like Gecko) Chrome/111.0.0.0 Safari/537.36 Edg/111.0.1661.51" etag="abEA5QwWql9e6TMaFv94" version="21.1.1" type="device">
  <diagram name="Page-1" id="mguCj2cKq7bsOL97bhls">
    <mxGraphModel dx="1050" dy="573" grid="1" gridSize="10" guides="1" tooltips="1" connect="1" arrows="1" fold="1" page="1" pageScale="1" pageWidth="850" pageHeight="1100" math="0" shadow="0">
      <root>
        <mxCell id="0" />
        <mxCell id="1" parent="0" />
        <mxCell id="fIXFhrKanXtExy9UGcHT-1" value="Пользователь" style="shape=umlActor;verticalLabelPosition=bottom;verticalAlign=top;html=1;outlineConnect=0;" parent="1" vertex="1">
          <mxGeometry x="100" y="120" width="30" height="60" as="geometry" />
        </mxCell>
        <mxCell id="fIXFhrKanXtExy9UGcHT-4" value="Менеджер" style="shape=umlActor;verticalLabelPosition=bottom;verticalAlign=top;html=1;outlineConnect=0;" parent="1" vertex="1">
          <mxGeometry x="110" y="440" width="30" height="60" as="geometry" />
        </mxCell>
        <mxCell id="fIXFhrKanXtExy9UGcHT-5" value="" style="whiteSpace=wrap;html=1;aspect=fixed;fillColor=none;" parent="1" vertex="1">
          <mxGeometry x="200" y="60" width="520" height="520" as="geometry" />
        </mxCell>
        <mxCell id="fIXFhrKanXtExy9UGcHT-6" value="Система авиакомпании" style="text;html=1;strokeColor=none;fillColor=none;align=center;verticalAlign=middle;whiteSpace=wrap;rounded=0;" parent="1" vertex="1">
          <mxGeometry x="640" y="67.5" width="60" height="30" as="geometry" />
        </mxCell>
        <mxCell id="fIXFhrKanXtExy9UGcHT-7" value="Система базы &lt;br&gt;данных" style="shape=umlActor;verticalLabelPosition=bottom;verticalAlign=top;html=1;outlineConnect=0;" parent="1" vertex="1">
          <mxGeometry x="770" y="210" width="30" height="60" as="geometry" />
        </mxCell>
        <mxCell id="fIXFhrKanXtExy9UGcHT-8" value="" style="endArrow=classic;html=1;rounded=0;" parent="1" target="fIXFhrKanXtExy9UGcHT-9" edge="1">
          <mxGeometry width="50" height="50" relative="1" as="geometry">
            <mxPoint x="150" y="150" as="sourcePoint" />
            <mxPoint x="335" y="129" as="targetPoint" />
          </mxGeometry>
        </mxCell>
        <mxCell id="fIXFhrKanXtExy9UGcHT-9" value="" style="ellipse;whiteSpace=wrap;html=1;" parent="1" vertex="1">
          <mxGeometry x="260" y="67.5" width="120" height="52.5" as="geometry" />
        </mxCell>
        <mxCell id="fIXFhrKanXtExy9UGcHT-10" value="Просмотр списка активных рейсов" style="text;html=1;strokeColor=none;fillColor=none;align=center;verticalAlign=middle;whiteSpace=wrap;rounded=0;" parent="1" vertex="1">
          <mxGeometry x="265" y="77" width="110" height="35" as="geometry" />
        </mxCell>
        <mxCell id="fIXFhrKanXtExy9UGcHT-11" value="" style="ellipse;whiteSpace=wrap;html=1;" parent="1" vertex="1">
          <mxGeometry x="360" y="147.5" width="110" height="70" as="geometry" />
        </mxCell>
        <mxCell id="fIXFhrKanXtExy9UGcHT-12" value="Просмотр числа свободных мест на рейсе" style="text;html=1;strokeColor=none;fillColor=none;align=center;verticalAlign=middle;whiteSpace=wrap;rounded=0;" parent="1" vertex="1">
          <mxGeometry x="360" y="165" width="110" height="35" as="geometry" />
        </mxCell>
        <mxCell id="fIXFhrKanXtExy9UGcHT-13" value="" style="endArrow=classic;html=1;rounded=0;exitX=1;exitY=0.5;exitDx=0;exitDy=0;entryX=0.371;entryY=0.017;entryDx=0;entryDy=0;entryPerimeter=0;strokeColor=none;dashed=1;" parent="1" source="fIXFhrKanXtExy9UGcHT-10" target="fIXFhrKanXtExy9UGcHT-11" edge="1">
          <mxGeometry width="50" height="50" relative="1" as="geometry">
            <mxPoint x="390" y="370" as="sourcePoint" />
            <mxPoint x="440" y="320" as="targetPoint" />
          </mxGeometry>
        </mxCell>
        <mxCell id="fIXFhrKanXtExy9UGcHT-14" style="edgeStyle=orthogonalEdgeStyle;rounded=0;orthogonalLoop=1;jettySize=auto;html=1;exitX=0.5;exitY=1;exitDx=0;exitDy=0;" parent="1" source="fIXFhrKanXtExy9UGcHT-12" target="fIXFhrKanXtExy9UGcHT-12" edge="1">
          <mxGeometry relative="1" as="geometry" />
        </mxCell>
        <mxCell id="fIXFhrKanXtExy9UGcHT-15" value="" style="ellipse;whiteSpace=wrap;html=1;" parent="1" vertex="1">
          <mxGeometry x="280" y="217.5" width="120" height="52.5" as="geometry" />
        </mxCell>
        <mxCell id="fIXFhrKanXtExy9UGcHT-16" value="Бронирование и возврат билета" style="text;html=1;strokeColor=none;fillColor=none;align=center;verticalAlign=middle;whiteSpace=wrap;rounded=0;" parent="1" vertex="1">
          <mxGeometry x="285" y="226" width="110" height="35" as="geometry" />
        </mxCell>
        <mxCell id="fIXFhrKanXtExy9UGcHT-17" value="" style="endArrow=classic;html=1;rounded=0;entryX=0;entryY=0;entryDx=0;entryDy=0;" parent="1" edge="1" target="fIXFhrKanXtExy9UGcHT-16">
          <mxGeometry width="50" height="50" relative="1" as="geometry">
            <mxPoint x="150" y="150" as="sourcePoint" />
            <mxPoint x="300" y="240" as="targetPoint" />
          </mxGeometry>
        </mxCell>
        <mxCell id="fIXFhrKanXtExy9UGcHT-19" value="" style="endArrow=classic;html=1;rounded=0;exitX=0.5;exitY=1;exitDx=0;exitDy=0;entryX=1;entryY=0;entryDx=0;entryDy=0;" parent="1" source="fIXFhrKanXtExy9UGcHT-11" target="fIXFhrKanXtExy9UGcHT-15" edge="1">
          <mxGeometry width="50" height="50" relative="1" as="geometry">
            <mxPoint x="390" y="370" as="sourcePoint" />
            <mxPoint x="440" y="320" as="targetPoint" />
          </mxGeometry>
        </mxCell>
        <mxCell id="fIXFhrKanXtExy9UGcHT-20" value="" style="endArrow=classic;html=1;rounded=0;entryX=1;entryY=0;entryDx=0;entryDy=0;" parent="1" target="fIXFhrKanXtExy9UGcHT-10" edge="1">
          <mxGeometry width="50" height="50" relative="1" as="geometry">
            <mxPoint x="740" y="250" as="sourcePoint" />
            <mxPoint x="440" y="320" as="targetPoint" />
          </mxGeometry>
        </mxCell>
        <mxCell id="fIXFhrKanXtExy9UGcHT-21" value="" style="endArrow=classic;html=1;rounded=0;entryX=1;entryY=0.75;entryDx=0;entryDy=0;" parent="1" target="fIXFhrKanXtExy9UGcHT-12" edge="1">
          <mxGeometry width="50" height="50" relative="1" as="geometry">
            <mxPoint x="740" y="250" as="sourcePoint" />
            <mxPoint x="440" y="320" as="targetPoint" />
          </mxGeometry>
        </mxCell>
        <mxCell id="fIXFhrKanXtExy9UGcHT-22" value="" style="endArrow=classic;html=1;rounded=0;entryX=1;entryY=0.5;entryDx=0;entryDy=0;" parent="1" target="fIXFhrKanXtExy9UGcHT-16" edge="1">
          <mxGeometry width="50" height="50" relative="1" as="geometry">
            <mxPoint x="740" y="250" as="sourcePoint" />
            <mxPoint x="440" y="320" as="targetPoint" />
          </mxGeometry>
        </mxCell>
        <mxCell id="fIXFhrKanXtExy9UGcHT-23" value="" style="endArrow=classic;html=1;rounded=0;dashed=1;dashPattern=8 8;entryX=1;entryY=0.75;entryDx=0;entryDy=0;exitX=0.5;exitY=0;exitDx=0;exitDy=0;" parent="1" source="fIXFhrKanXtExy9UGcHT-11" target="fIXFhrKanXtExy9UGcHT-10" edge="1">
          <mxGeometry width="50" height="50" relative="1" as="geometry">
            <mxPoint x="450" y="440" as="sourcePoint" />
            <mxPoint x="500" y="390" as="targetPoint" />
          </mxGeometry>
        </mxCell>
        <mxCell id="fIXFhrKanXtExy9UGcHT-24" value="&amp;lt;&amp;lt;включает&amp;gt;&amp;gt;" style="text;html=1;strokeColor=none;fillColor=none;align=center;verticalAlign=middle;whiteSpace=wrap;rounded=0;" parent="1" vertex="1">
          <mxGeometry x="325.5" y="127" width="60" height="30" as="geometry" />
        </mxCell>
        <mxCell id="fIXFhrKanXtExy9UGcHT-25" value="" style="endArrow=classic;html=1;rounded=0;" parent="1" target="fIXFhrKanXtExy9UGcHT-26" edge="1">
          <mxGeometry width="50" height="50" relative="1" as="geometry">
            <mxPoint x="160" y="470" as="sourcePoint" />
            <mxPoint x="277.5" y="381.25" as="targetPoint" />
          </mxGeometry>
        </mxCell>
        <mxCell id="fIXFhrKanXtExy9UGcHT-26" value="" style="ellipse;whiteSpace=wrap;html=1;" parent="1" vertex="1">
          <mxGeometry x="380" y="351.75" width="120" height="80" as="geometry" />
        </mxCell>
        <mxCell id="fIXFhrKanXtExy9UGcHT-27" value="Мониторинг пользователей, истории полётов, авиапарка" style="text;html=1;strokeColor=none;fillColor=none;align=center;verticalAlign=middle;whiteSpace=wrap;rounded=0;" parent="1" vertex="1">
          <mxGeometry x="385" y="371.25" width="110" height="35" as="geometry" />
        </mxCell>
        <mxCell id="fIXFhrKanXtExy9UGcHT-28" value="" style="endArrow=classic;html=1;rounded=0;" parent="1" target="fIXFhrKanXtExy9UGcHT-29" edge="1">
          <mxGeometry width="50" height="50" relative="1" as="geometry">
            <mxPoint x="160" y="470" as="sourcePoint" />
            <mxPoint x="422.5" y="418.75" as="targetPoint" />
          </mxGeometry>
        </mxCell>
        <mxCell id="fIXFhrKanXtExy9UGcHT-29" value="" style="ellipse;whiteSpace=wrap;html=1;" parent="1" vertex="1">
          <mxGeometry x="360" y="436" width="120" height="68.75" as="geometry" />
        </mxCell>
        <mxCell id="fIXFhrKanXtExy9UGcHT-30" value="Добавление новых рейсов и самолётов" style="text;html=1;strokeColor=none;fillColor=none;align=center;verticalAlign=middle;whiteSpace=wrap;rounded=0;" parent="1" vertex="1">
          <mxGeometry x="365" y="458" width="110" height="35" as="geometry" />
        </mxCell>
        <mxCell id="fIXFhrKanXtExy9UGcHT-31" value="" style="endArrow=classic;html=1;rounded=0;" parent="1" target="fIXFhrKanXtExy9UGcHT-32" edge="1">
          <mxGeometry width="50" height="50" relative="1" as="geometry">
            <mxPoint x="160" y="470" as="sourcePoint" />
            <mxPoint x="412.5" y="568.75" as="targetPoint" />
          </mxGeometry>
        </mxCell>
        <mxCell id="fIXFhrKanXtExy9UGcHT-32" value="" style="ellipse;whiteSpace=wrap;html=1;" parent="1" vertex="1">
          <mxGeometry x="340" y="510" width="120" height="60" as="geometry" />
        </mxCell>
        <mxCell id="fIXFhrKanXtExy9UGcHT-33" value="Добавление новых транспортных узлов" style="text;html=1;strokeColor=none;fillColor=none;align=center;verticalAlign=middle;whiteSpace=wrap;rounded=0;" parent="1" vertex="1">
          <mxGeometry x="346" y="525" width="110" height="35" as="geometry" />
        </mxCell>
        <mxCell id="fIXFhrKanXtExy9UGcHT-34" value="" style="endArrow=classic;html=1;rounded=0;exitX=1;exitY=0.5;exitDx=0;exitDy=0;" parent="1" source="fIXFhrKanXtExy9UGcHT-27" target="fIXFhrKanXtExy9UGcHT-35" edge="1">
          <mxGeometry width="50" height="50" relative="1" as="geometry">
            <mxPoint x="340" y="590" as="sourcePoint" />
            <mxPoint x="382.5" y="603.75" as="targetPoint" />
          </mxGeometry>
        </mxCell>
        <mxCell id="fIXFhrKanXtExy9UGcHT-35" value="" style="ellipse;whiteSpace=wrap;html=1;" parent="1" vertex="1">
          <mxGeometry x="532.5" y="348.25" width="105" height="70" as="geometry" />
        </mxCell>
        <mxCell id="fIXFhrKanXtExy9UGcHT-36" value="Статистический анализ данных" style="text;html=1;strokeColor=none;fillColor=none;align=center;verticalAlign=middle;whiteSpace=wrap;rounded=0;" parent="1" vertex="1">
          <mxGeometry x="530" y="365.75" width="110" height="35" as="geometry" />
        </mxCell>
        <mxCell id="fIXFhrKanXtExy9UGcHT-40" value="" style="endArrow=classic;html=1;rounded=0;entryX=1;entryY=0;entryDx=0;entryDy=0;" parent="1" target="fIXFhrKanXtExy9UGcHT-36" edge="1">
          <mxGeometry width="50" height="50" relative="1" as="geometry">
            <mxPoint x="740" y="250" as="sourcePoint" />
            <mxPoint x="687.5" y="440" as="targetPoint" />
          </mxGeometry>
        </mxCell>
        <mxCell id="fIXFhrKanXtExy9UGcHT-43" value="" style="endArrow=classic;html=1;rounded=0;" parent="1" edge="1">
          <mxGeometry width="50" height="50" relative="1" as="geometry">
            <mxPoint x="740" y="250" as="sourcePoint" />
            <mxPoint x="460" y="520" as="targetPoint" />
            <Array as="points">
              <mxPoint x="740" y="520" />
            </Array>
          </mxGeometry>
        </mxCell>
        <mxCell id="fIXFhrKanXtExy9UGcHT-45" value="" style="endArrow=classic;html=1;rounded=0;entryX=1;entryY=1;entryDx=0;entryDy=0;" parent="1" edge="1" target="fIXFhrKanXtExy9UGcHT-30">
          <mxGeometry width="50" height="50" relative="1" as="geometry">
            <mxPoint x="740" y="250" as="sourcePoint" />
            <mxPoint x="480" y="445" as="targetPoint" />
            <Array as="points">
              <mxPoint x="680" y="490" />
            </Array>
          </mxGeometry>
        </mxCell>
        <mxCell id="fIXFhrKanXtExy9UGcHT-46" value="" style="endArrow=classic;html=1;rounded=0;entryX=0;entryY=1;entryDx=0;entryDy=0;" parent="1" target="fIXFhrKanXtExy9UGcHT-9" edge="1">
          <mxGeometry width="50" height="50" relative="1" as="geometry">
            <mxPoint x="160" y="470" as="sourcePoint" />
            <mxPoint x="420" y="300" as="targetPoint" />
          </mxGeometry>
        </mxCell>
        <mxCell id="IKExKe8eIzAEsjHXs8DD-5" value="" style="ellipse;whiteSpace=wrap;html=1;" vertex="1" parent="1">
          <mxGeometry x="245" y="300.88" width="120" height="60" as="geometry" />
        </mxCell>
        <mxCell id="IKExKe8eIzAEsjHXs8DD-8" value="Операции с&amp;nbsp; заказом услуги перевозки багажа" style="text;html=1;strokeColor=none;fillColor=none;align=center;verticalAlign=middle;whiteSpace=wrap;rounded=0;" vertex="1" parent="1">
          <mxGeometry x="255" y="310" width="100" height="41.75" as="geometry" />
        </mxCell>
        <mxCell id="IKExKe8eIzAEsjHXs8DD-9" value="" style="endArrow=classic;html=1;rounded=0;dashed=1;exitX=1;exitY=0;exitDx=0;exitDy=0;entryX=0.75;entryY=1;entryDx=0;entryDy=0;" edge="1" parent="1" source="IKExKe8eIzAEsjHXs8DD-8" target="fIXFhrKanXtExy9UGcHT-16">
          <mxGeometry width="50" height="50" relative="1" as="geometry">
            <mxPoint x="400" y="330" as="sourcePoint" />
            <mxPoint x="450" y="280" as="targetPoint" />
          </mxGeometry>
        </mxCell>
        <mxCell id="IKExKe8eIzAEsjHXs8DD-12" value="" style="endArrow=classic;html=1;rounded=0;entryX=0.955;entryY=0.309;entryDx=0;entryDy=0;entryPerimeter=0;" edge="1" parent="1" target="IKExKe8eIzAEsjHXs8DD-5">
          <mxGeometry width="50" height="50" relative="1" as="geometry">
            <mxPoint x="740" y="250" as="sourcePoint" />
            <mxPoint x="450" y="280" as="targetPoint" />
          </mxGeometry>
        </mxCell>
        <mxCell id="IKExKe8eIzAEsjHXs8DD-13" value="&amp;lt;&amp;lt;расширяет&amp;gt;&amp;gt;" style="text;html=1;strokeColor=none;fillColor=none;align=center;verticalAlign=middle;whiteSpace=wrap;rounded=0;" vertex="1" parent="1">
          <mxGeometry x="280" y="270.88" width="60" height="30" as="geometry" />
        </mxCell>
      </root>
    </mxGraphModel>
  </diagram>
</mxfile>
